<?xml version="1.0" standalone="no"?>
<!DOCTYPE svg PUBLIC "-//W3C//DTD SVG 20010904//EN"
 "http://www.w3.org/TR/2001/REC-SVG-20010904/DTD/svg10.dtd">
<svg version="1.0" xmlns="http://www.w3.org/2000/svg"
 width="1024.000000pt" height="1024.000000pt" viewBox="0 0 1024.000000 1024.000000"
 preserveAspectRatio="xMidYMid meet">
<metadata>
Created by potrace 1.14, written by Peter Selinger 2001-2017
</metadata>
<g transform="translate(0.000000,1024.000000) scale(0.100000,-0.100000)"
fill="#000000" stroke="none">
<path d="M6207 9594 c-1 -2 -27 -6 -57 -9 -30 -3 -71 -8 -90 -10 -19 -3 -57
-7 -85 -10 -27 -3 -66 -7 -85 -10 -19 -2 -60 -7 -90 -10 -57 -6 -81 -9 -165
-20 -27 -4 -70 -9 -95 -11 -25 -2 -61 -6 -80 -9 -19 -3 -57 -7 -85 -10 -54 -5
-106 -11 -170 -19 -71 -8 -229 -27 -270 -31 -22 -2 -40 -4 -40 -5 0 -1 -18 -3
-40 -5 -67 -6 -138 -14 -185 -20 -25 -4 -61 -8 -80 -10 -19 -2 -35 -4 -35 -5
0 -1 -22 -3 -50 -5 -27 -2 -88 -8 -134 -15 -46 -6 -107 -14 -135 -16 -95 -9
-121 -12 -121 -14 0 0 -20 -3 -45 -5 -25 -2 -63 -6 -85 -9 -22 -3 -67 -8 -100
-11 -33 -3 -71 -8 -85 -10 -14 -2 -50 -7 -80 -10 -72 -8 -113 -15 -119 -21 -2
-2 -4 -158 -4 -347 l0 -342 -1799 0 -1798 0 0 -1165 0 -1165 4965 -1 c4452 0
4965 2 4969 16 8 28 19 105 22 155 1 28 4 50 5 50 3 0 11 59 24 170 3 33 8 71
11 85 2 14 6 43 9 65 3 22 7 56 10 75 3 19 7 55 10 80 3 25 7 56 10 70 6 33
16 116 20 160 2 19 4 35 5 35 1 0 4 16 5 35 1 19 6 53 10 75 3 22 8 60 11 85
2 25 6 56 8 70 3 14 8 50 11 80 6 53 10 79 20 138 2 15 7 54 10 87 6 62 9 82
19 150 6 39 8 58 22 160 3 28 8 58 10 68 2 10 6 48 10 85 3 36 8 75 10 87 5
25 14 88 19 135 2 19 6 53 9 75 l5 40 -1980 0 c-1312 0 -1979 3 -1980 10 -1 6
-2 231 -3 500 l-1 490 -33 1 c-18 0 -34 -1 -35 -2z"/>
<path d="M4697 5674 c-1 -1 -117 -5 -257 -9 -140 -3 -289 -8 -330 -11 -41 -2
-105 -5 -142 -7 -36 -1 -69 -5 -73 -9 -4 -4 -17 -3 -30 2 -13 5 -26 6 -29 3
-3 -4 -25 -7 -49 -8 -102 -5 -312 -24 -452 -41 -22 -2 -60 -6 -85 -9 -51 -4
-133 -14 -170 -20 -14 -2 -47 -7 -75 -11 -27 -3 -59 -8 -70 -10 -10 -2 -35 -6
-55 -9 -20 -3 -47 -8 -60 -10 -52 -11 -86 -16 -115 -20 -16 -2 -52 -8 -80 -14
-27 -7 -63 -14 -80 -17 -16 -3 -95 -21 -175 -40 -80 -20 -152 -37 -160 -39 -8
-2 -17 -4 -20 -6 -3 -1 -9 -3 -15 -4 -5 -2 -13 -4 -17 -5 -5 -1 -12 -4 -18 -5
-5 -1 -11 -3 -12 -5 -2 -1 -11 -3 -21 -5 -36 -7 -272 -87 -365 -124 -100 -40
-333 -151 -412 -197 -96 -55 -212 -136 -324 -224 -45 -35 -217 -210 -266 -269
-58 -72 -150 -207 -150 -222 0 -5 -4 -9 -9 -9 -5 0 -12 -12 -16 -27 -3 -15
-10 -30 -14 -33 -6 -5 -81 -156 -81 -165 0 -2 -5 -16 -12 -32 -6 -15 -13 -36
-15 -46 -1 -10 -10 -31 -18 -48 -9 -16 -13 -29 -11 -29 3 0 1 -12 -5 -27 -6
-16 -12 -36 -14 -46 -2 -9 -11 -44 -19 -78 -9 -33 -18 -75 -21 -92 -3 -18 -10
-59 -16 -92 -6 -33 -13 -85 -15 -115 -2 -30 -7 -80 -10 -110 -7 -74 -8 -370
-1 -445 19 -201 30 -274 56 -377 5 -21 7 -38 4 -38 -3 0 0 -7 7 -15 7 -8 10
-15 7 -15 -3 0 -1 -15 4 -32 6 -18 11 -37 13 -43 13 -54 62 -181 111 -290 20
-44 36 -81 36 -83 -1 -1 3 -8 9 -15 5 -6 41 -60 80 -119 70 -109 83 -126 178
-231 162 -178 362 -328 622 -463 30 -16 57 -31 60 -34 3 -3 10 -6 15 -7 6 -1
48 -19 95 -41 47 -21 112 -49 145 -61 33 -13 74 -28 90 -34 17 -7 32 -12 35
-13 3 0 12 -3 20 -7 38 -15 142 -48 210 -67 41 -12 82 -23 90 -25 14 -4 109
-28 155 -40 31 -7 107 -25 135 -30 20 -4 64 -14 90 -20 3 -1 25 -5 50 -9 25
-5 54 -10 65 -12 81 -16 92 -18 195 -34 41 -6 86 -13 99 -15 69 -11 112 -17
147 -20 22 -2 39 -4 39 -5 0 -1 20 -3 45 -5 25 -3 63 -7 85 -10 75 -11 171
-21 305 -31 517 -40 753 -48 1425 -48 495 0 766 5 1025 19 220 12 357 21 445
30 33 3 83 8 110 10 54 5 132 13 205 22 25 3 57 6 73 6 15 1 27 4 27 7 0 3 14
5 31 4 16 0 54 3 82 7 29 5 69 11 90 14 21 4 75 13 119 20 45 8 84 13 86 10 2
-2 14 0 26 5 13 4 38 11 57 14 72 12 155 29 384 82 11 3 31 7 44 10 14 3 28 7
33 10 4 3 16 7 27 9 78 15 385 117 496 164 203 87 475 229 483 252 2 5 8 9 13
9 8 0 123 80 173 120 86 70 181 160 241 230 26 30 57 66 69 80 86 99 240 379
282 510 9 30 21 59 25 65 5 5 9 19 9 31 0 13 5 26 10 29 6 4 8 10 5 15 -3 5
-1 18 4 28 6 11 13 32 15 48 3 16 15 75 26 131 11 55 23 127 25 160 3 32 8 87
12 123 7 84 7 405 -1 490 -12 140 -20 192 -46 315 -22 105 -27 130 -30 130 -1
0 -3 9 -5 20 -6 29 -39 131 -64 195 -34 86 -132 280 -143 280 -5 0 -7 4 -4 9
3 5 -1 14 -9 21 -8 7 -15 18 -15 25 0 8 -4 15 -8 17 -5 2 -23 26 -42 53 -18
28 -40 54 -47 58 -7 4 -13 12 -13 17 0 10 -101 120 -169 184 -89 84 -103 96
-111 96 -5 0 -10 3 -12 8 -9 20 -249 184 -333 228 -22 11 -60 31 -85 44 -25
13 -47 25 -50 25 -3 1 -41 18 -85 39 -104 48 -106 49 -200 84 -105 40 -196 72
-215 77 -9 1 -55 15 -102 30 -48 14 -95 28 -105 30 -10 3 -36 9 -58 15 -36 9
-197 47 -235 55 -88 19 -175 36 -206 41 -20 3 -46 8 -58 10 -11 2 -34 6 -51 9
-16 3 -43 7 -60 10 -16 3 -48 8 -70 10 -22 3 -51 8 -65 10 -46 7 -110 16 -240
31 -25 3 -61 7 -80 9 -19 3 -64 7 -100 10 -36 4 -87 8 -115 11 -103 11 -133
13 -230 19 -55 4 -122 8 -150 10 -57 4 -228 12 -485 21 -155 6 -988 12 -993 8z
m763 -2029 c168 -3 337 -7 375 -9 154 -9 314 -21 410 -32 141 -15 206 -24 279
-39 38 -8 72 -12 77 -10 4 3 10 1 13 -4 3 -4 23 -11 44 -15 21 -3 74 -17 118
-31 236 -77 335 -177 338 -343 3 -169 -95 -270 -341 -351 -83 -27 -169 -47
-185 -43 -5 1 -8 -1 -8 -5 0 -5 -10 -8 -22 -9 -13 0 -41 -4 -63 -8 -22 -4 -53
-9 -68 -11 -15 -2 -44 -7 -65 -10 -20 -2 -64 -8 -97 -11 -33 -3 -76 -8 -95
-10 -19 -1 -75 -6 -125 -9 -49 -3 -119 -8 -155 -10 -357 -25 -1286 -25 -1695
0 -141 9 -187 13 -192 19 -3 3 -13 1 -23 -4 -10 -5 -20 -6 -24 -3 -4 4 -17 8
-29 9 -152 14 -260 27 -317 40 -14 3 -36 7 -50 9 -23 4 -84 16 -140 29 -196
45 -359 142 -405 241 -25 53 -26 59 -27 140 -1 169 103 266 376 350 44 14 90
25 103 25 13 0 23 5 23 11 0 5 4 8 9 4 5 -3 29 -1 53 4 24 6 57 12 73 15 98
15 118 18 157 22 24 2 66 6 93 9 110 11 144 14 235 21 181 12 246 14 570 20
179 3 326 7 327 8 1 1 35 1 75 -1 40 -1 210 -4 378 -8z"/>
</g>
</svg>
