<svg width="41.6" height="36.4" viewBox="0 0 32 28" fill="none" xmlns="http://www.w3.org/2000/svg">
    <path d="M15.7848 28C5.69208 28 0.956652 25.9724 0.956652 20.131C0.956652 14.2897 5.69208 12.2621 15.7848 12.2621C25.8774 12.2621 30.6129 14.2897 30.6129 20.131C30.6129 25.9724 25.8774 28 15.7848 28ZM0 10.4276V3.13793H11.2407V0.965519L19.6114 0V3.13793H32L31.0433 10.4276H0ZM15.7848 21.6759C21.2855 21.6759 22.2422 21.0483 22.2422 20.131C22.2422 19.2138 21.2855 18.5862 15.7848 18.5862C10.284 18.5862 9.32735 19.2138 9.32735 20.131C9.32735 21.0483 10.284 21.6759 15.7848 21.6759Z" fill="#21CCE3"/>
</svg>
